<svg width="34" height="33" viewBox="0 0 34 33" fill="none" xmlns="http://www.w3.org/2000/svg">
<path d="M4.97241 10.6667H29.0557V24.3467C29.0557 25.3156 28.6468 26.2448 27.9188 26.93C27.1909 27.6151 26.2036 28 25.1741 28H8.85408C7.8246 28 6.83728 27.6151 6.10933 26.93C5.38137 26.2448 4.97241 25.3156 4.97241 24.3467V10.6667Z" stroke="#1C1C1E" stroke-width="1.4" stroke-linecap="round" stroke-linejoin="round"/>
<path d="M14.8607 4H19.1107C20.2379 4 21.3189 4.42143 22.116 5.17157C22.913 5.92172 23.3607 6.93913 23.3607 8V10.6667H10.6107V8C10.6107 6.93913 11.0585 5.92172 11.8555 5.17157C12.6526 4.42143 13.7336 4 14.8607 4Z" stroke="#1C1C1E" stroke-width="1.4" stroke-linecap="round" stroke-linejoin="round"/>
</svg>
