<svg width="16" height="17" viewBox="0 0 16 17" fill="none" xmlns="http://www.w3.org/2000/svg">
<path d="M16 15.4334L11.5307 11.1182C12.6047 9.87327 13.1402 8.27651 13.026 6.66005C12.9117 5.04359 12.1564 3.5319 10.9171 2.43946C9.67784 1.34701 8.05008 0.757912 6.37243 0.794717C4.69478 0.831522 3.09641 1.49139 1.90983 2.63706C0.723243 3.78273 0.0398038 5.32598 0.00168439 6.94578C-0.036435 8.56558 0.5737 10.1372 1.70516 11.3337C2.83663 12.5303 4.40231 13.2595 6.07649 13.3699C7.75068 13.4802 9.40448 12.9631 10.6938 11.9261L15.1632 16.2414L16 15.4334ZM1.20478 7.09894C1.20478 6.08183 1.51716 5.08756 2.10242 4.24186C2.68768 3.39616 3.51953 2.73702 4.49278 2.34779C5.46603 1.95855 6.53697 1.85671 7.57016 2.05514C8.60336 2.25357 9.55241 2.74336 10.2973 3.46256C11.0422 4.18177 11.5495 5.0981 11.755 6.09567C11.9605 7.09324 11.855 8.12724 11.4519 9.06693C11.0488 10.0066 10.3661 10.8098 9.49018 11.3749C8.61428 11.9399 7.5845 12.2416 6.53106 12.2416C5.11892 12.24 3.76507 11.6977 2.76654 10.7336C1.76801 9.76955 1.20635 8.46238 1.20478 7.09894Z" fill="#979797"/>
</svg>
